{
	"patcher" : 	{
		"fileversion" : 1,
		"rect" : [ 29.0, 70.0, 640.0, 480.0 ],
		"bglocked" : 0,
		"defrect" : [ 29.0, 70.0, 640.0, 480.0 ],
		"openrect" : [ 0.0, 0.0, 0.0, 0.0 ],
		"openinpresentation" : 0,
		"default_fontsize" : 12.0,
		"default_fontface" : 0,
		"default_fontname" : "Arial",
		"gridonopen" : 0,
		"gridsize" : [ 15.0, 15.0 ],
		"gridsnaponopen" : 0,
		"toolbarvisible" : 1,
		"boxanimatetime" : 200,
		"imprint" : 0,
		"enablehscroll" : 1,
		"enablevscroll" : 1,
		"devicewidth" : 0.0,
		"boxes" : [ 			{
				"box" : 				{
					"maxclass" : "message",
					"text" : "compile",
					"numinlets" : 2,
					"fontname" : "Arial",
					"patching_rect" : [ 421.0, 100.0, 52.0, 18.0 ],
					"numoutlets" : 1,
					"outlettype" : [ "" ],
					"id" : "obj-10",
					"fontsize" : 12.0
				}

			}
, 			{
				"box" : 				{
					"maxclass" : "button",
					"numinlets" : 1,
					"patching_rect" : [ 386.0, 59.0, 20.0, 20.0 ],
					"numoutlets" : 1,
					"outlettype" : [ "bang" ],
					"id" : "obj-8"
				}

			}
, 			{
				"box" : 				{
					"maxclass" : "message",
					"text" : "Scratch:/acte_1.fcpxml",
					"linecount" : 2,
					"numinlets" : 2,
					"fontname" : "Arial",
					"patching_rect" : [ 336.0, 126.0, 120.0, 32.0 ],
					"numoutlets" : 1,
					"outlettype" : [ "" ],
					"id" : "obj-7",
					"fontsize" : 12.0
				}

			}
, 			{
				"box" : 				{
					"maxclass" : "button",
					"numinlets" : 1,
					"patching_rect" : [ 223.0, 61.0, 20.0, 20.0 ],
					"numoutlets" : 1,
					"outlettype" : [ "bang" ],
					"id" : "obj-5"
				}

			}
, 			{
				"box" : 				{
					"maxclass" : "newobj",
					"text" : "prepend read",
					"numinlets" : 1,
					"fontname" : "Arial",
					"patching_rect" : [ 223.0, 132.0, 82.0, 20.0 ],
					"numoutlets" : 1,
					"outlettype" : [ "" ],
					"id" : "obj-3",
					"fontsize" : 12.0
				}

			}
, 			{
				"box" : 				{
					"maxclass" : "newobj",
					"text" : "opendialog",
					"numinlets" : 1,
					"fontname" : "Arial",
					"patching_rect" : [ 223.0, 95.0, 69.0, 20.0 ],
					"numoutlets" : 2,
					"outlettype" : [ "", "bang" ],
					"id" : "obj-2",
					"fontsize" : 12.0
				}

			}
, 			{
				"box" : 				{
					"maxclass" : "newobj",
					"text" : "js recover_chapter_markers_from_xml.js",
					"numinlets" : 1,
					"fontname" : "Arial",
					"patching_rect" : [ 223.0, 167.0, 227.0, 20.0 ],
					"numoutlets" : 1,
					"outlettype" : [ "" ],
					"id" : "obj-1",
					"fontsize" : 12.0
				}

			}
 ],
		"lines" : [ 			{
				"patchline" : 				{
					"source" : [ "obj-2", 0 ],
					"destination" : [ "obj-3", 0 ],
					"hidden" : 0,
					"midpoints" : [ 225.5, 113.0 ]
				}

			}
, 			{
				"patchline" : 				{
					"source" : [ "obj-3", 0 ],
					"destination" : [ "obj-1", 0 ],
					"hidden" : 0,
					"midpoints" : [  ]
				}

			}
, 			{
				"patchline" : 				{
					"source" : [ "obj-5", 0 ],
					"destination" : [ "obj-2", 0 ],
					"hidden" : 0,
					"midpoints" : [  ]
				}

			}
, 			{
				"patchline" : 				{
					"source" : [ "obj-2", 0 ],
					"destination" : [ "obj-7", 1 ],
					"hidden" : 0,
					"midpoints" : [  ]
				}

			}
, 			{
				"patchline" : 				{
					"source" : [ "obj-7", 0 ],
					"destination" : [ "obj-3", 0 ],
					"hidden" : 0,
					"midpoints" : [  ]
				}

			}
, 			{
				"patchline" : 				{
					"source" : [ "obj-8", 0 ],
					"destination" : [ "obj-7", 0 ],
					"hidden" : 0,
					"midpoints" : [  ]
				}

			}
, 			{
				"patchline" : 				{
					"source" : [ "obj-8", 0 ],
					"destination" : [ "obj-10", 0 ],
					"hidden" : 0,
					"midpoints" : [  ]
				}

			}
, 			{
				"patchline" : 				{
					"source" : [ "obj-10", 0 ],
					"destination" : [ "obj-1", 0 ],
					"hidden" : 0,
					"midpoints" : [ 430.5, 142.0, 232.5, 142.0 ]
				}

			}
 ]
	}

}
